<?xml version="1.0" encoding="utf-8"?>
<!-- Generator: Adobe Illustrator 19.0.0, SVG Export Plug-In . SVG Version: 6.00 Build 0)  -->
<svg version="1.1" xmlns="http://www.w3.org/2000/svg" xmlns:xlink="http://www.w3.org/1999/xlink" x="0px" y="0px"
	 viewBox="0 0 64 64" style="enable-background:new 0 0 64 64;" xml:space="preserve">
<style type="text/css">
	.st0{display:none;}
	.st1{display:inline;fill:#FFFFFF;}
	.st2{display:inline;}
	.st3{fill:none;stroke:#4C5159;stroke-width:2;stroke-miterlimit:10;}
	.st4{display:inline;fill:none;stroke:#4C5159;stroke-width:2;stroke-miterlimit:10;}
	.st5{display:inline;fill:none;stroke:#4C5159;stroke-width:2;stroke-miterlimit:10;stroke-dasharray:1.9857,1.9857;}
	.st6{fill:none;stroke:#4C5159;stroke-width:2;stroke-miterlimit:10;stroke-dasharray:1.9857,1.9857;}
	.st7{fill:#4C5159;}
	.st8{font-family:'Montserrat-Bold';}
	.st9{font-size:7px;}
	.st10{display:inline;fill:#74E2F0;}
	.st11{display:inline;fill:#FBDA73;}
	.st12{display:inline;fill:#F08E70;}
</style>
<g id="bg" class="st0">
	<rect id="XMLID_119_" x="-218" y="-268.2" class="st1" width="500" height="600.3"/>
</g>
<g id="guideline" class="st0">
</g>
<g id="icons">
	<g id="XMLID_58_" class="st0">
		<g id="XMLID_55_" class="st2">
			<path id="XMLID_7_" class="st3" d="M16.8,23.8v2.4c0,1.4-1.1,2.5-2.5,2.5l0,0c-1.4,0-2.5-1.1-2.5-2.5v-2.4"/>
			<path id="XMLID_4_" class="st3" d="M21.7,23.8v2.4c0,1.4-1.1,2.5-2.5,2.5l0,0c-1.4,0-2.5-1.1-2.5-2.5v-2.4"/>
			<path id="XMLID_8_" class="st3" d="M26.6,23.8v2.4c0,1.4-1.1,2.5-2.5,2.5l0,0c-1.4,0-2.5-1.1-2.5-2.5v-2.4"/>
			<path id="XMLID_9_" class="st3" d="M31.5,23.8v2.4c0,1.4-1.1,2.5-2.5,2.5l0,0c-1.4,0-2.5-1.1-2.5-2.5v-2.4"/>
			<path id="XMLID_13_" class="st3" d="M36.4,23.8v2.4c0,1.4-1.1,2.5-2.5,2.5l0,0c-1.4,0-2.5-1.1-2.5-2.5v-2.4"/>
			<path id="XMLID_15_" class="st3" d="M41.3,23.8v2.4c0,1.4-1.1,2.5-2.5,2.5l0,0c-1.4,0-2.5-1.1-2.5-2.5v-2.4"/>
			<path id="XMLID_36_" class="st3" d="M46.4,23.8v2.4c0,1.4-1.1,2.5-2.5,2.5l0,0c-1.4,0-2.5-1.1-2.5-2.5v-2.4"/>
			<path id="XMLID_48_" class="st3" d="M51.2,23.8v2.4c0,1.4-1.1,2.5-2.5,2.5l0,0c-1.4,0-2.5-1.1-2.5-2.5v-2.4"/>
		</g>
		<line id="XMLID_49_" class="st4" x1="13.3" y1="29.9" x2="13.3" y2="50.1"/>
		<line id="XMLID_40_" class="st4" x1="50.3" y1="29.9" x2="50.3" y2="50.1"/>
		<rect id="XMLID_50_" x="17.1" y="32.2" class="st4" width="15.7" height="8.5"/>
		<rect id="XMLID_51_" x="37.9" y="32.2" class="st4" width="8.4" height="14.5"/>
		<path id="XMLID_53_" class="st4" d="M10.6,53.5v-3.3c0,0,0-0.1,0.1-0.1h42.7c0,0,0.1,0,0.1,0.1v3.3"/>
		<line id="XMLID_54_" class="st4" x1="39.9" y1="39.5" x2="41.6" y2="39.5"/>
		<path id="XMLID_52_" class="st4" d="M53.3,22.1h-43c-0.1,0-0.1-0.1-0.1-0.1v-4.3c0-0.1,0.1-0.1,0.1-0.1h43c0.1,0,0.1,0.1,0.1,0.1
			v4.3C53.5,22,53.4,22.1,53.3,22.1z"/>
		<polyline id="XMLID_56_" class="st4" points="14.4,15.9 14.4,14 12.4,12.3 12.4,10.5 51.2,10.5 51.2,12.3 49.2,14 49.2,15.9 		"/>
		<line id="XMLID_57_" class="st4" x1="16.3" y1="13.6" x2="30.8" y2="13.6"/>
		<line id="XMLID_65_" class="st4" x1="8.2" y1="53.5" x2="55.8" y2="53.5"/>
	</g>
	<g id="XMLID_108_" class="st0">
		<g id="XMLID_117_" class="st2">
			<path id="XMLID_125_" class="st3" d="M20.4,22v2.8c0,1.6-1.3,2.9-2.9,2.9l0,0c-1.6,0-2.9-1.3-2.9-2.9V22"/>
			<path id="XMLID_124_" class="st3" d="M26.2,22v2.8c0,1.6-1.3,2.9-2.9,2.9l0,0c-1.6,0-2.9-1.3-2.9-2.9V22"/>
			<path id="XMLID_123_" class="st3" d="M31.9,22v2.8c0,1.6-1.3,2.9-2.9,2.9l0,0c-1.6,0-2.9-1.3-2.9-2.9V22"/>
			<path id="XMLID_122_" class="st3" d="M37.7,22v2.8c0,1.6-1.3,2.9-2.9,2.9l0,0c-1.6,0-2.9-1.3-2.9-2.9V22"/>
			<path id="XMLID_121_" class="st3" d="M43.4,22v2.8c0,1.6-1.3,2.9-2.9,2.9l0,0c-1.6,0-2.9-1.3-2.9-2.9V22"/>
			<path id="XMLID_120_" class="st3" d="M49.3,22v2.8c0,1.6-1.3,2.9-2.9,2.9l0,0c-1.6,0-2.9-1.3-2.9-2.9V22"/>
		</g>
		<path id="XMLID_78_" class="st4" d="M45.2,29.2V52c0,1.2-1,2.2-2.2,2.2H21c-1.2,0-2.2-1-2.2-2.2V29.2"/>
		<path id="XMLID_72_" class="st4" d="M18.8,18.6V12c0-1.2,1-2.2,2.2-2.2H43c1.2,0,2.2,1,2.2,2.2v6.5"/>
		<line id="XMLID_77_" class="st4" x1="18.8" y1="16.5" x2="45.2" y2="16.5"/>
		<line id="XMLID_75_" class="st4" x1="27.8" y1="13.3" x2="36.2" y2="13.3"/>
		<line id="XMLID_74_" class="st4" x1="18.8" y1="47.5" x2="45.2" y2="47.5"/>
		<g id="XMLID_67_" class="st2">
			<path id="XMLID_70_" class="st3" d="M35.4,32.3H31c-1.2,0-2.1,1-2.1,2.1v0c0,1.2,1,2.1,2.1,2.1h2.1c1.2,0,2.1,1,2.1,2.1l0,0
				c0,1.2-1,2.1-2.1,2.1h-4.5"/>
			<line id="XMLID_69_" class="st3" x1="32.2" y1="30.1" x2="32.2" y2="32.3"/>
			<line id="XMLID_68_" class="st3" x1="32.2" y1="40.9" x2="32.2" y2="42.9"/>
		</g>
		<line id="XMLID_84_" class="st4" x1="13.2" y1="20.2" x2="50.8" y2="20.2"/>
	</g>
	<g id="XMLID_96_" class="st0">
		<g id="XMLID_111_" class="st2">
			<g id="XMLID_113_">
				<path id="XMLID_118_" class="st3" d="M27,19h-3.4c-0.9,0-1.7,0.7-1.7,1.7l0,0c0,0.9,0.7,1.7,1.7,1.7h1.6c0.9,0,1.7,0.7,1.7,1.7
					l0,0c0,0.9-0.7,1.7-1.7,1.7h-3.5"/>
				<line id="XMLID_116_" class="st3" x1="24.6" y1="17.2" x2="24.6" y2="19"/>
				<line id="XMLID_114_" class="st3" x1="24.6" y1="25.6" x2="24.6" y2="27.2"/>
			</g>
			<circle id="XMLID_112_" class="st3" cx="24.4" cy="22.2" r="8.3"/>
		</g>
		<path id="XMLID_93_" class="st4" d="M45.8,53.2L45.8,53.2c-2.9,0-5.3-2.4-5.3-5.3v-4.3c0-2.9,2.4-5.3,5.3-5.3l0,0
			c2.9,0,5.3,2.4,5.3,5.3V48C51,50.9,48.7,53.2,45.8,53.2z"/>
		<line id="XMLID_99_" class="st4" x1="39.7" y1="44.6" x2="51" y2="44.6"/>
		<line id="XMLID_102_" class="st4" x1="45.8" y1="40.5" x2="45.8" y2="42.7"/>
		<path id="XMLID_109_" class="st4" d="M45.8,38.4v-4.3c0-3.1-2.5-5.6-5.6-5.6l0,0c-3.1,0-5.7,2.5-5.7,5.6v5.5c0,2.7-2.2,5-5,5l0,0
			c-2.7,0-5-2.2-5-5v-6.6"/>
		<path id="XMLID_133_" class="st5" d="M18.2,31.9c-3.1-2-5.2-5.6-5.2-9.6c0-6.3,5.1-11.5,11.5-11.5c6.3,0,11.5,5.1,11.5,11.5
			c0,4-2,7.4-5.1,9.5"/>
	</g>
	<g id="XMLID_142_" class="st0">
		<path id="XMLID_137_" class="st4" d="M19.2,37.3v-9.5c0-0.1,0.1-0.1,0.1-0.1h1.4c0.1,0,0.1,0,0.1,0.1l2.7,8.5
			c0,0.1,0.1,0.1,0.1,0.1h1.4c0.1,0,0.1-0.1,0.1-0.1v-9.6"/>
		<path id="XMLID_136_" class="st4" d="M34.4,36.3H30c-0.1,0-0.2-0.1-0.2-0.2v-8.3c0-0.1,0.1-0.2,0.2-0.2h4.4"/>
		<line id="XMLID_139_" class="st4" x1="29.6" y1="32" x2="33.1" y2="32"/>
		<path id="XMLID_141_" class="st4" d="M45.7,27.2v8.9c0,0.1-0.1,0.2-0.2,0.2h-1.3c-0.1-0.1-0.3-0.2-0.4-0.3l-1.5-4.1
			c0-0.1-0.1-0.1-0.2-0.1h-1c-0.1,0-0.2,0.1-0.2,0.1l-1.5,4.2c-0.1,0.2-0.2,0.3-0.4,0.3h-1.3c-0.1,0-0.2-0.1-0.2-0.2v-8.9"/>
		<circle id="XMLID_135_" class="st4" cx="32" cy="32" r="18.4"/>
		<path id="XMLID_144_" class="st4" d="M20.6,24.5c2.4-3.7,6.6-6.1,11.4-6.1c1.9,0,3.7,0.4,5.3,1.1"/>
		<path id="XMLID_140_" class="st4" d="M43.7,39.1c-2.4,4-6.7,6.6-11.7,6.6c-1.2,0-2.3-0.1-3.4-0.4"/>
		<circle id="XMLID_138_" class="st5" cx="32" cy="32" r="22.8"/>
	</g>
	<g id="XMLID_163_" class="st0">
		<g id="XMLID_145_" class="st2">
			<path id="XMLID_151_" class="st3" d="M15.1,50.1c-1.6,0-2.9-1.3-2.9-2.9V22.8h3.4"/>
			<path id="XMLID_148_" class="st3" d="M21.2,50.1H15c1.9,0,3-1.6,3-3L18,13.1c0-1.5,1.2-2.8,2.8-2.8h1.8"/>
			<path id="XMLID_147_" class="st3" d="M51.8,53.6V12.1c0-1-0.8-1.8-1.8-1.8h-1.9H20.4c1.9,0,3,1.6,3,3l-0.1,40.3H51.8z"/>
		</g>
		<path id="XMLID_152_" class="st4" d="M42.4,16.4c0-1.5-1.2-2.7-2.7-2.7c-0.8,0-1.4,0.3-1.9,0.8c-0.5-0.5-1.2-0.8-1.9-0.8
			c-1.5,0-2.7,1.2-2.7,2.7c0,0.7,0.3,1.4,0.8,1.9l3.9,3.9l4-4c0-0.1,0.2-0.2,0.2-0.2C42.2,17.5,42.4,17,42.4,16.4z"/>
		<line id="XMLID_153_" class="st4" x1="33.1" y1="29" x2="49.1" y2="29"/>
		<line id="XMLID_146_" class="st4" x1="33.1" y1="34.7" x2="49.1" y2="34.7"/>
		<line id="XMLID_154_" class="st4" x1="33.1" y1="40.5" x2="49.1" y2="40.5"/>
		<line id="XMLID_155_" class="st4" x1="33.1" y1="46.2" x2="49.1" y2="46.2"/>
		<line id="XMLID_162_" class="st4" x1="31.1" y1="29" x2="27.3" y2="29"/>
		<line id="XMLID_160_" class="st4" x1="31.1" y1="34.7" x2="27.3" y2="34.7"/>
		<line id="XMLID_158_" class="st4" x1="31.1" y1="40.5" x2="27.3" y2="40.5"/>
		<line id="XMLID_156_" class="st4" x1="31.1" y1="46.2" x2="27.3" y2="46.2"/>
	</g>
	<g id="XMLID_180_" class="st0">
		<g id="XMLID_165_" class="st2">
			<line id="XMLID_178_" class="st3" x1="22.6" y1="46.3" x2="22.6" y2="42"/>
			<line id="XMLID_177_" class="st3" x1="20.6" y1="39.8" x2="15.9" y2="39.6"/>
			<path id="XMLID_175_" class="st3" d="M23.5,23.8L23.5,23.8c-1.7,0-3.1,1.4-3.1,3.1l0,12c0,1.7,1.4,3.1,3.1,3.1l0,0L23.5,23.8z"/>
			<circle id="XMLID_174_" class="st3" cx="12.7" cy="41.1" r="3.4"/>
			<circle id="XMLID_173_" class="st3" cx="21" cy="49.4" r="3.4"/>
			<path id="XMLID_166_" class="st3" d="M23.6,39l15.1,0l0,0c0,1.7-1.4,3.1-3.1,3.1l-12,0"/>
		</g>
		<path id="XMLID_168_" class="st4" d="M48.7,15.6v18.7c0,0,0,0.1-0.1,0.1H26.8c0,0-0.1,0-0.1-0.1V15.6"/>
		<path id="XMLID_169_" class="st4" d="M21,11.2l3.4,2c0.2,0.1,0.4,0.1,0.6,0l3.1-1.8c0.2-0.1,0.4-0.1,0.6,0l3.1,1.8
			c0.2,0.1,0.4,0.1,0.6,0l3.1-1.8c0.2-0.1,0.4-0.1,0.6,0l3.1,1.8c0.2,0.1,0.4,0.1,0.6,0l3.1-1.8c0.2-0.1,0.4-0.1,0.6,0l3.1,1.8
			c0.2,0.1,0.4,0.1,0.6,0l3.1-1.8c0.2-0.1,0.4-0.1,0.6,0l3.4,2"/>
		<g id="XMLID_171_" class="st2">
			<circle id="XMLID_167_" class="st3" cx="41.3" cy="28.7" r="1.6"/>
			<circle id="XMLID_170_" class="st3" cx="34" cy="21.4" r="1.6"/>
			<line id="XMLID_172_" class="st3" x1="33.8" y1="28.9" x2="42.4" y2="20.3"/>
		</g>
	</g>
	<g id="XMLID_187_" class="st0">
		<path id="XMLID_184_" class="st4" d="M27,29.8v-10c0-0.1,0.1-0.1,0.1-0.1h26.5c0.1,0,0.1,0.1,0.1,0.1v33.3c0,0.1-0.1,0.1-0.1,0.1
			h-7.4"/>
		<path id="XMLID_183_" class="st4" d="M43.6,53.2H11c-0.1,0-0.2-0.1-0.2-0.2l1-4.4V32.4c0-0.2,0.1-0.3,0.3-0.3h30.5
			c0.2,0,0.3,0.1,0.3,0.3v16.2l1,4.4C43.8,53.1,43.7,53.2,43.6,53.2z"/>
		<line id="XMLID_185_" class="st4" x1="11.8" y1="48.1" x2="27" y2="48.1"/>
		<line id="XMLID_182_" class="st4" x1="30.8" y1="48.1" x2="29" y2="48.1"/>
		<path id="XMLID_188_" class="st4" d="M32.6,26.2v-7.5c0-4.3,3.5-7.9,7.9-7.9l0,0c4.3,0,7.9,3.5,7.9,7.9v7.5"/>
		<path id="XMLID_189_" class="st4" d="M35.5,34.2v2.2c0,4.3-3.5,7.9-7.9,7.9l0,0c-4.3,0-7.9-3.5-7.9-7.9v-2.2"/>
		<polyline id="XMLID_190_" class="st4" points="13.7,16 17,19.3 24.6,11.7 		"/>
		<path id="XMLID_191_" class="st4" d="M23,17.6c0,3.6-2.9,6.4-6.4,6.4c-3.6,0-6.4-2.9-6.4-6.4c0-3.6,2.9-6.4,6.4-6.4
			c1.2,0,2.3,0.3,3.3,0.9"/>
	</g>
	<g id="XMLID_237_">
		<g id="XMLID_194_">
			<g id="XMLID_229_">
				<path id="XMLID_233_" class="st3" d="M37.1,39.9h-3.3c-0.9,0-1.6,0.7-1.6,1.6l0,0c0,0.9,0.7,1.6,1.6,1.6h1.6
					c0.9,0,1.6,0.7,1.6,1.6l0,0c0,0.9-0.7,1.6-1.6,1.6H32"/>
				<line id="XMLID_232_" class="st3" x1="34.7" y1="38.2" x2="34.7" y2="39.9"/>
				<line id="XMLID_231_" class="st3" x1="34.7" y1="46.4" x2="34.7" y2="48"/>
			</g>
			<path id="XMLID_228_" class="st3" d="M51.3,52.9H17.8c-1.1,0-2-0.9-2-2V35.2c0-1.1,0.9-2,2-2h33.5c1.1,0,2,0.9,2,2V51
				C53.3,52.1,52.4,52.9,51.3,52.9z"/>
			<path id="XMLID_226_" class="st3" d="M21.7,33.2c0,3.2-2.6,5.8-5.8,5.8"/>
			<path id="XMLID_225_" class="st3" d="M47.4,33.2c0,3.2,2.6,5.8,5.8,5.8"/>
			<path id="XMLID_224_" class="st3" d="M21.7,52.9c0-3.2-2.6-5.8-5.8-5.8"/>
			<path id="XMLID_223_" class="st3" d="M47.4,52.9c0-3.2,2.6-5.8,5.8-5.8"/>
			<circle id="XMLID_222_" class="st3" cx="34.6" cy="43.1" r="6.8"/>
			<line id="XMLID_221_" class="st3" x1="23.4" y1="43.1" x2="25.7" y2="43.1"/>
			<line id="XMLID_220_" class="st3" x1="43.2" y1="43.1" x2="45.4" y2="43.1"/>
		</g>
		<path id="XMLID_208_" class="st3" d="M34.7,31.6V11.3c0-0.1-0.1-0.2-0.2-0.2H10.9c-0.1,0-0.2,0.1-0.2,0.2v41.4
			c0,0.2,0.1,0.3,0.3,0.3h3.4"/>
		<line id="XMLID_235_" class="st3" x1="28.9" y1="15.6" x2="28.9" y2="19.8"/>
		<line id="XMLID_234_" class="st3" x1="28.9" y1="21.9" x2="28.9" y2="26.1"/>
		<line id="XMLID_236_" class="st3" x1="28.9" y1="28.1" x2="28.9" y2="30.8"/>
		<path id="XMLID_205_" class="st3" d="M21.2,25h-5.1c-0.1,0-0.2-0.1-0.2-0.2v-7.9c0-0.1,0.1-0.2,0.2-0.2h5.1c0.1,0,0.2,0.1,0.2,0.2
			v7.9C21.4,24.9,21.3,25,21.2,25z"/>
		<path id="XMLID_219_" class="st6" d="M36.9,17.3c8,0,14.6,6.5,14.6,14.6"/>
	</g>
	<g id="XMLID_258_" class="st0">
		<g id="XMLID_243_" class="st2">
			<path id="XMLID_252_" class="st3" d="M48.3,20.5h4.2c0.6,0,1,0.4,1,1v24.8c0,0.6-0.4,1-1,1h-41c-0.6,0-1-0.4-1-1V21.5
				c0-0.6,0.4-1,1-1h4"/>
			<line id="XMLID_241_" class="st3" x1="10.5" y1="41.4" x2="53.5" y2="41.4"/>
			<line id="XMLID_242_" class="st3" x1="21.3" y1="46.7" x2="21.3" y2="54.1"/>
			<line id="XMLID_240_" class="st3" x1="42.3" y1="46.7" x2="42.3" y2="54.1"/>
			<line id="XMLID_244_" class="st3" x1="17.5" y1="54.1" x2="46.2" y2="54.1"/>
		</g>
		<polyline id="XMLID_254_" class="st4" points="17.6,41.1 17.6,9.9 46.4,9.9 46.4,41.1 		"/>
		<line id="XMLID_255_" class="st4" x1="17.7" y1="15.7" x2="46.4" y2="15.7"/>
		<line id="XMLID_256_" class="st4" x1="20" y1="12.9" x2="22.3" y2="12.9"/>
		<line id="XMLID_239_" class="st4" x1="23.1" y1="12.9" x2="25.4" y2="12.9"/>
		<line id="XMLID_257_" class="st4" x1="26.3" y1="12.9" x2="28.5" y2="12.9"/>
		<g id="XMLID_261_" class="st2">
			<line id="XMLID_260_" class="st3" x1="28.9" y1="26.8" x2="33.3" y2="31.3"/>
			<polyline id="XMLID_259_" class="st3" points="32.3,26 28.1,26 28.1,30.2 			"/>
			<path id="XMLID_262_" class="st6" d="M28.1,34.4c-2.1-0.2-4.1-1.3-5.4-3.3c-2.3-3.4-1.4-8.1,2-10.4c3.4-2.3,8.1-1.4,10.4,2
				c1.1,1.6,1.4,3.4,1.2,5.2"/>
		</g>
		<line id="XMLID_276_" class="st4" x1="39" y1="23" x2="43.3" y2="23"/>
		<line id="XMLID_263_" class="st4" x1="39" y1="27.2" x2="43.3" y2="27.2"/>
		<line id="XMLID_277_" class="st4" x1="36.3" y1="31.3" x2="43.3" y2="31.3"/>
		<line id="XMLID_278_" class="st4" x1="31.1" y1="35.5" x2="43.3" y2="35.5"/>
	</g>
	<g id="XMLID_286_" class="st0">
		<path id="XMLID_280_" class="st4" d="M52.4,30.6H11.6c-0.1,0-0.1-0.1-0.1-0.1v-7.6c0-0.1,0.1-0.1,0.1-0.1h40.9
			c0.1,0,0.1,0.1,0.1,0.1v7.6C52.6,30.6,52.5,30.6,52.4,30.6z"/>
		<path id="XMLID_282_" class="st4" d="M49.7,33.2v20.1c0,0.1-0.1,0.1-0.1,0.1H14.7c-0.1,0-0.1-0.1-0.1-0.1V33.2"/>
		<line id="XMLID_283_" class="st4" x1="28.8" y1="33" x2="28.8" y2="53.5"/>
		<line id="XMLID_281_" class="st4" x1="35.2" y1="33" x2="35.2" y2="53.5"/>
		<line id="XMLID_293_" class="st4" x1="35.3" y1="46.3" x2="28.7" y2="52.9"/>
		<line id="XMLID_291_" class="st4" x1="35" y1="40.8" x2="28.5" y2="47.4"/>
		<line id="XMLID_295_" class="st4" x1="35.4" y1="34.8" x2="28.9" y2="41.3"/>
		<line id="XMLID_297_" class="st4" x1="30.9" y1="33.6" x2="28.8" y2="35.8"/>
		<line id="XMLID_298_" class="st4" x1="37.1" y1="22.8" x2="29.5" y2="30.4"/>
		<line id="XMLID_299_" class="st4" x1="31.3" y1="23" x2="26.8" y2="27.4"/>
		<line id="XMLID_285_" class="st4" x1="26.9" y1="22.6" x2="26.9" y2="30.6"/>
		<line id="XMLID_284_" class="st4" x1="37.1" y1="22.6" x2="37.1" y2="30.6"/>
		<path id="XMLID_287_" class="st4" d="M28.8,22.6c0-1.7,1.3-3,3-3s3,1.3,3,3"/>
		<path id="XMLID_289_" class="st4" d="M33,19.2l4.8-8.5c0.1-0.2,0.4-0.2,0.5-0.1l5.8,5.8c0.2,0.2,0.1,0.4-0.1,0.5l-8.5,4.8"/>
		<path id="XMLID_290_" class="st4" d="M31.2,19.2l-4.8-8.5c-0.1-0.2-0.4-0.2-0.5-0.1l-5.8,5.8c-0.2,0.2-0.1,0.4,0.1,0.5l8.5,4.8"/>
	</g>
	<g id="XMLID_307_" class="st0">
		<line id="XMLID_330_" class="st4" x1="26.2" y1="23.9" x2="22.3" y2="23.9"/>
		<path id="XMLID_329_" class="st4" d="M9.3,19.4h7.2c0.1,0,0.2,0.1,0.2,0.2l6,21.4c0,0.1,0.1,0.2,0.3,0.2h26.8
			c0.1,0,0.2-0.1,0.3-0.2l4.6-16.7c0-0.2-0.1-0.3-0.3-0.3h-7.6"/>
		<line id="XMLID_331_" class="st4" x1="46.2" y1="29.6" x2="49.5" y2="29.6"/>
		<line id="XMLID_306_" class="st4" x1="24.3" y1="29.6" x2="27.6" y2="29.6"/>
		<line id="XMLID_305_" class="st4" x1="26.2" y1="35.3" x2="47.2" y2="35.3"/>
		<circle id="XMLID_308_" class="st4" cx="28.7" cy="48.8" r="3.5"/>
		<line id="XMLID_310_" class="st4" x1="27.6" y1="48.8" x2="29.9" y2="48.8"/>
		<circle id="XMLID_311_" class="st4" cx="43.7" cy="48.8" r="3.5"/>
		<line id="XMLID_309_" class="st4" x1="42.6" y1="48.8" x2="44.9" y2="48.8"/>
		<g id="XMLID_312_" class="st2">
			<line id="XMLID_313_" class="st3" x1="32.3" y1="23.7" x2="41.2" y2="23.7"/>
			<line id="XMLID_314_" class="st3" x1="36.7" y1="28.1" x2="36.7" y2="19.2"/>
		</g>
		<circle id="XMLID_315_" class="st4" cx="36.7" cy="23.7" r="8.1"/>
		<path id="XMLID_332_" class="st5" d="M25.9,20.7c0.9-5.2,5.5-9.1,11-9c5.5,0.1,9.9,4.2,10.5,9.5"/>
	</g>
	<g id="XMLID_320_" class="st0">
		<path id="XMLID_328_" class="st4" d="M9.3,15.6h7.2c0.1,0,0.2,0.1,0.2,0.2l6,21.4c0,0.1,0.1,0.2,0.3,0.2h26.8
			c0.1,0,0.2-0.1,0.3-0.2l4.6-16.7c0-0.2-0.1-0.3-0.3-0.3H22.3"/>
		<line id="XMLID_327_" class="st4" x1="24.3" y1="25.8" x2="49.5" y2="25.8"/>
		<line id="XMLID_326_" class="st4" x1="26.2" y1="31.4" x2="47.2" y2="31.4"/>
		<circle id="XMLID_325_" class="st4" cx="28.7" cy="44.9" r="3.5"/>
		<line id="XMLID_324_" class="st4" x1="27.6" y1="44.9" x2="29.9" y2="44.9"/>
		<circle id="XMLID_323_" class="st4" cx="43.7" cy="44.9" r="3.5"/>
		<line id="XMLID_322_" class="st4" x1="42.6" y1="44.9" x2="44.9" y2="44.9"/>
	</g>
	<g id="XMLID_354_" class="st0">
		<g id="XMLID_339_" class="st2">
			<polyline id="XMLID_345_" class="st3" points="39.9,17.1 42.3,19.5 48.2,13.6 			"/>
			<path id="XMLID_344_" class="st6" d="M49.1,17.6c0,4.1-3.3,7.4-7.4,7.4c-4.1,0-7.4-3.3-7.4-7.4c0-4.1,3.3-7.4,7.4-7.4
				c1.4,0,2.6,0.4,3.7,1"/>
		</g>
		<circle id="XMLID_321_" class="st4" cx="18.1" cy="50.3" r="3.4"/>
		<circle id="XMLID_333_" class="st4" cx="45.3" cy="50.3" r="3.4"/>
		<path id="XMLID_336_" class="st4" d="M24,50.5h11.9c0.1,0,0.1-0.1,0.1-0.1V26.7c0-0.1-0.1-0.1-0.1-0.1H10.2
			c-0.1,0-0.1,0.1-0.1,0.1v23.7c0,0.1,0.1,0.1,0.1,0.1h3"/>
		<path id="XMLID_337_" class="st4" d="M40.4,50.3H39V30.7c0-0.1,0.1-0.3,0.3-0.3h10c0.1,0,0.2,0.1,0.2,0.1l4.4,8.7v10.8
			c0,0.1-0.1,0.2-0.2,0.2h-3"/>
		<polyline id="XMLID_334_" class="st4" points="43.5,30.5 43.5,38.9 50.6,38.9 		"/>
		<line id="XMLID_338_" class="st4" x1="42.5" y1="42.4" x2="44.6" y2="42.4"/>
		<line id="XMLID_335_" class="st4" x1="51" y1="45.1" x2="53.2" y2="45.1"/>
		<line id="XMLID_340_" class="st4" x1="23.1" y1="46.9" x2="35.8" y2="46.9"/>
		<polyline id="XMLID_341_" class="st4" points="10.1,42.4 13.2,42.4 13.2,45.8 10.1,45.8 		"/>
		<line id="XMLID_356_" class="st4" x1="13.2" y1="31.3" x2="36.2" y2="31.3"/>
		<line id="XMLID_355_" class="st4" x1="23.1" y1="38.9" x2="36.2" y2="38.9"/>
		<line id="XMLID_348_" class="st4" x1="21.1" y1="38.9" x2="19" y2="38.9"/>
	</g>
	<g id="XMLID_353_" class="st0">
		<circle id="XMLID_349_" class="st4" cx="32" cy="29.3" r="14.2"/>
		<path id="XMLID_350_" class="st4" d="M21.8,29.3c0-5.6,4.6-10.2,10.2-10.2"/>
		<path id="XMLID_352_" class="st5" d="M17.7,41.6c-2.8-3.3-4.6-7.6-4.6-12.3c0-10.4,8.4-18.9,18.9-18.9c10.4,0,18.9,8.4,18.9,18.9
			c0,4.7-1.7,9-4.6,12.3"/>
		<path id="XMLID_351_" class="st4" d="M40.5,43.6v9.7c0,0.1-0.1,0.1-0.2,0.1l-8.8-2.9l-8.4,2.9c-0.1,0-0.2,0-0.2-0.1v-9.7"/>
		<path id="XMLID_438_" class="st4" d="M35.2,35.3L32,33.5l-3.3,1.7c-0.4,0.2-0.9-0.1-0.8-0.6l0.7-3.6l-2.6-2.6
			c-0.3-0.3-0.1-0.9,0.3-0.9l3.7-0.5l1.7-3.3c0.2-0.4,0.8-0.4,1,0l1.6,3.3l3.7,0.6c0.4,0.1,0.6,0.6,0.3,0.9l-2.7,2.6l0.6,3.7
			C36.1,35.2,35.6,35.5,35.2,35.3z"/>
	</g>
	<g id="XMLID_481_" class="st0">
		<g id="XMLID_362_" class="st2">
			<circle id="XMLID_365_" class="st3" cx="46.7" cy="27.4" r="1.7"/>
			<circle id="XMLID_364_" class="st3" cx="38.8" cy="19.4" r="1.7"/>
			<line id="XMLID_363_" class="st3" x1="38.6" y1="27.6" x2="47.9" y2="18.3"/>
		</g>
		<path id="XMLID_359_" class="st4" d="M53.1,52.8H10.1c-0.1,0-0.2-0.1-0.2-0.2L9,47.8c0-0.1,0.1-0.3,0.2-0.3h19.4l1,1h4l1-1H54
			c0.1,0,0.2,0.1,0.2,0.3l-0.9,4.8C53.2,52.7,53.2,52.8,53.1,52.8z"/>
		<path id="XMLID_361_" class="st4" d="M28.1,24H11.7c-0.2,0-0.3,0.1-0.3,0.3v20.9"/>
		<line id="XMLID_381_" class="st4" x1="51.8" y1="45.2" x2="51.8" y2="35.4"/>
		<path id="XMLID_388_" class="st4" d="M30.5,34.8l1.2-6.4c-0.7-1.5-1.1-3.2-1.1-5c0-6.7,5.4-12.2,12.2-12.2
			c6.7,0,12.2,5.4,12.2,12.2c0,6.7-5.4,12.2-12.2,12.2c-2.4,0-4.6-0.7-6.5-1.9L30.5,34.8z"/>
		<g id="XMLID_360_" class="st2">
			<line id="XMLID_372_" class="st3" x1="37" y1="39" x2="34.5" y2="37.6"/>
			<line id="XMLID_374_" class="st3" x1="34.2" y1="41.8" x2="32.8" y2="39.3"/>
			<line id="XMLID_376_" class="st3" x1="30.4" y1="42.8" x2="30.4" y2="40"/>
			<line id="XMLID_377_" class="st3" x1="26.5" y1="41.8" x2="28" y2="39.3"/>
			<line id="XMLID_378_" class="st3" x1="23.7" y1="39" x2="26.2" y2="37.6"/>
			<line id="XMLID_382_" class="st3" x1="22.7" y1="35.2" x2="25.6" y2="35.2"/>
			<line id="XMLID_383_" class="st3" x1="23.7" y1="31.4" x2="26.2" y2="32.8"/>
			<line id="XMLID_384_" class="st3" x1="26.5" y1="28.5" x2="27.9" y2="31"/>
		</g>
	</g>
	<g id="XMLID_446_" class="st0">
		<path id="XMLID_368_" class="st4" d="M20.9,28.1h-8.5v25.5c0,0.1,0.1,0.2,0.2,0.2h38c0.1,0,0.2-0.1,0.2-0.2V30.1l4-5c0,0,0,0,0,0
			h-8.6c0,0,0,0,0,0l-2.7,3h-7.8"/>
		<path id="XMLID_369_" class="st4" d="M12.4,28.1l-3.2-4.7c0,0,0-0.1,0-0.1h6.1c0,0,0,0,0,0l3.5,4.8"/>
		<line id="XMLID_370_" class="st4" x1="43.4" y1="53.8" x2="43.4" y2="30.4"/>
		<line id="XMLID_386_" class="st4" x1="48.9" y1="30.4" x2="45.6" y2="30.4"/>
		<g id="XMLID_385_" class="st2">
			<path id="XMLID_390_" class="st3" d="M33.2,26.9V32h3.9c0.1,0,0.2,0.2,0.1,0.3l-8.9,8.9c-0.1,0.1-0.2,0.1-0.2,0l-8.9-8.9
				c-0.1-0.1,0-0.3,0.1-0.3h3.9v-5.3"/>
			<path id="XMLID_389_" class="st3" d="M40.8,10.2v8.5h3c0.1,0,0.2,0.1,0.1,0.2L37,25.8c0,0-0.1,0-0.2,0l-1.8-1.8"/>
			<line id="XMLID_387_" class="st6" x1="33.2" y1="11.1" x2="33.2" y2="26.9"/>
			<line id="XMLID_367_" class="st6" x1="28.2" y1="20.1" x2="28.2" y2="35.9"/>
		</g>
	</g>
	<g id="XMLID_396_" class="st0">
		<path id="XMLID_401_" class="st4" d="M53.6,51L51,53.6c-0.1,0.1-0.2,0.1-0.3,0L44.2,47c-0.1-0.1-0.1-0.2,0-0.3l2.6-2.6
			c0.1-0.1,0.2-0.1,0.3,0l6.6,6.6C53.7,50.8,53.7,51,53.6,51z"/>
		<line id="XMLID_400_" class="st4" x1="42.7" y1="42.7" x2="45" y2="45"/>
		<circle id="XMLID_391_" class="st4" cx="31.4" cy="31.6" r="16"/>
		<path id="XMLID_399_" class="st5" d="M31.4,52.5c-11.6,0-21.1-9.4-21.1-21.1s9.4-21.1,21.1-21.1c11.6,0,21.1,9.4,21.1,21.1"/>
		<g id="XMLID_612_" class="st2">
			<circle id="XMLID_619_" class="st3" cx="31.4" cy="31.6" r="12.1"/>
			<path id="XMLID_618_" class="st3" d="M35.7,20.3c1.8,3,2.9,6.9,2.9,11.3c0,4.4-1.1,8.4-3,11.4"/>
			<path id="XMLID_617_" class="st3" d="M27.5,20.3c-1.8,3-3,6.9-3,11.3c0,4.4,1.1,8.4,3,11.4"/>
			<line id="XMLID_616_" class="st3" x1="31.4" y1="19.5" x2="31.4" y2="43.7"/>
			<line id="XMLID_615_" class="st3" x1="19.3" y1="31.6" x2="43.5" y2="31.6"/>
			<line id="XMLID_614_" class="st3" x1="21.2" y1="25.8" x2="42.1" y2="25.8"/>
			<line id="XMLID_613_" class="st3" x1="20.8" y1="37.3" x2="41.8" y2="37.3"/>
		</g>
	</g>
	<g id="XMLID_493_" class="st0">
		<path id="XMLID_524_" class="st4" d="M38.9,32.9c0-2.3-1.9-4.3-4.3-4.3c-1.2,0-2.3,0.5-3,1.3c-0.8-0.8-1.8-1.3-3-1.3
			c-2.3,0-4.3,1.9-4.3,4.3c0,1.1,0.5,2.2,1.2,2.9l6.1,6l6.2-6.2c0.1-0.1,0.2-0.3,0.2-0.3C38.6,34.7,38.9,33.9,38.9,32.9z"/>
		<path id="XMLID_518_" class="st4" d="M14.1,51.7v-40c0-0.1,0.1-0.2,0.2-0.2h35.5c0.1,0,0.2,0.1,0.2,0.2v33"/>
		<line id="XMLID_517_" class="st4" x1="14.2" y1="17.2" x2="49.9" y2="17.2"/>
		<line id="XMLID_515_" class="st4" x1="16.5" y1="14.5" x2="18.8" y2="14.5"/>
		<line id="XMLID_514_" class="st4" x1="20.6" y1="14.5" x2="22.9" y2="14.5"/>
		<line id="XMLID_506_" class="st4" x1="24.8" y1="14.5" x2="27" y2="14.5"/>
		<path id="XMLID_512_" class="st4" d="M49.6,50.4l-2,2c-0.1,0.1-0.2,0.1-0.3,0L42,47.2c-0.1-0.1-0.1-0.2,0-0.3l2-2
			c0.1-0.1,0.2-0.1,0.3,0l5.3,5.3C49.7,50.2,49.7,50.4,49.6,50.4z"/>
		<line id="XMLID_510_" class="st4" x1="40.8" y1="43.7" x2="42.6" y2="45.5"/>
		<circle id="XMLID_507_" class="st4" cx="31.6" cy="34.6" r="13"/>
	</g>
	<g id="XMLID_407_" class="st0">
		<path id="XMLID_394_" class="st4" d="M29.3,18.6h24.9c0,0,0,0,0,0V44c0,0,0,0,0,0h-4.8v7.1c0,0.2-0.2,0.3-0.4,0.2L40,44H17.4
			c0,0,0,0,0,0v-14"/>
		<path id="XMLID_403_" class="st4" d="M22,28.1l-4.2-2.3L13.5,28c-0.5,0.3-1.1-0.2-1-0.8l0.8-4.7l-3.4-3.4
			c-0.4-0.4-0.2-1.1,0.4-1.2l4.7-0.6l2.2-4.3c0.3-0.5,1-0.5,1.3,0l2.1,4.3l4.7,0.7c0.6,0.1,0.8,0.8,0.4,1.2l-3.5,3.3l0.8,4.7
			C23.1,27.9,22.5,28.4,22,28.1z"/>
		<line id="XMLID_404_" class="st4" x1="27.6" y1="24.8" x2="49.1" y2="24.8"/>
		<line id="XMLID_402_" class="st4" x1="27.6" y1="30.5" x2="49.1" y2="30.5"/>
		<line id="XMLID_405_" class="st4" x1="27.6" y1="36.2" x2="49.1" y2="36.2"/>
	</g>
	<g id="XMLID_412_" class="st0">
		<path id="XMLID_429_" class="st4" d="M14.7,54V45c0-0.9,0.5-1.6,1.4-1.9l11.1-3.8v-4.3"/>
		<path id="XMLID_428_" class="st4" d="M49.3,54V45c0-0.9-0.5-1.6-1.4-1.9l-11.1-3.8v-4.3"/>
		<path id="XMLID_427_" class="st4" d="M40.4,21c0-4.6-3.8-8.4-8.4-8.4c-4.6,0-8.4,3.8-8.4,8.4l0.8,10.1c0.1,1.4,0.9,2.6,2.1,3.2
			l4.1,2.7h2.7l4.2-2.7c0.9-0.5,1.6-1.3,1.9-2.3c0.1-0.3,0.1-0.6,0.2-0.9L40.4,21z"/>
		<path id="XMLID_426_" class="st4" d="M30.2,46.9l-1-3.2c0,0,0,0,0,0l2.7-2c0,0,0,0,0,0l2.7,2c0,0,0,0,0,0l-1,3.2H30.2z"/>
		<line id="XMLID_425_" class="st4" x1="30.2" y1="46.9" x2="29.2" y2="54"/>
		<line id="XMLID_423_" class="st4" x1="33.4" y1="46.9" x2="34.5" y2="54"/>
		<line id="XMLID_422_" class="st4" x1="27.1" y1="39.4" x2="30.2" y2="42.9"/>
		<line id="XMLID_418_" class="st4" x1="37.1" y1="39.4" x2="33.9" y2="42.9"/>
		<path id="XMLID_431_" class="st4" d="M21.2,22v-1.2C21.2,14.9,26,10,31.9,10h0c5.9,0,10.7,4.8,10.7,10.7V22"/>
		<path id="XMLID_432_" class="st4" d="M24.2,28.2L24.2,28.2c-2,0.2-3.7-1.3-3.9-3.2l0,0c-0.2-2,1.3-3.7,3.2-3.9l0,0L24.2,28.2z"/>
		<path id="XMLID_435_" class="st4" d="M39.9,28.2L39.9,28.2c2,0.2,3.7-1.3,3.9-3.2l0,0c0.2-2-1.3-3.7-3.2-3.9l0,0L39.9,28.2z"/>
		<polyline id="XMLID_437_" class="st4" points="42.7,27.2 42.7,31.8 41.9,33.1 32.4,33.1 		"/>
	</g>
	<g id="XMLID_445_" class="st0">
		<g id="XMLID_442_" class="st2">
			<path id="XMLID_441_" class="st3" d="M15.1,53.7c0-9.3,7.6-16.9,16.9-16.9c9.3,0,16.9,7.6,16.9,16.9"/>
			<path id="XMLID_443_" class="st3" d="M37.9,37.9c2.6,4.1,4.1,9.7,4.1,15.8"/>
			<path id="XMLID_454_" class="st3" d="M26.5,37.9c-2.6,4.1-4.1,9.7-4.1,15.8"/>
			<line id="XMLID_448_" class="st3" x1="32" y1="36.9" x2="32" y2="53.9"/>
			<line id="XMLID_444_" class="st3" x1="17.7" y1="45.7" x2="46.9" y2="45.7"/>
		</g>
		<path id="XMLID_439_" class="st4" d="M39.7,23.6c0,5.7-7.1,12.3-7.9,13.1c0,0-0.1,0-0.2,0c-0.9-0.8-8-7.4-7.9-13.1
			c0-4.4,3.6-8,8-8C36.1,15.6,39.6,19.1,39.7,23.6z"/>
		<circle id="XMLID_440_" class="st4" cx="31.7" cy="23.6" r="4.4"/>
		<path id="XMLID_452_" class="st5" d="M22.2,33.1c-2.4-2.4-3.9-5.8-3.9-9.5c0-3.7,1.5-7.1,3.9-9.5c2.4-2.4,5.8-3.9,9.5-3.9
			c3.7,0,7.1,1.5,9.5,3.9c2.4,2.4,3.9,5.8,3.9,9.5c0,3.7-1.5,7.1-3.9,9.5"/>
	</g>
	<g id="XMLID_464_" class="st0">
		<g id="XMLID_463_" class="st2">
			<line id="XMLID_476_" class="st3" x1="43.2" y1="43.2" x2="49.6" y2="49.5"/>
			<polyline id="XMLID_475_" class="st3" points="48.2,42.6 42.7,42.6 42.7,48.2 			"/>
		</g>
		<g id="XMLID_457_" class="st2">
			<path id="XMLID_456_" class="st3" d="M14.4,27h5.6c1.4,0,2.5,1.1,2.5,2.5l0,0c0,1.4-1.1,2.5-2.5,2.5H17"/>
			<path id="XMLID_451_" class="st3" d="M17,32h5.2c1.4,0,2.5,1.1,2.5,2.5l0,0c0,1.4-1.1,2.5-2.5,2.5h-6.1"/>
			<line id="XMLID_458_" class="st3" x1="17.2" y1="27" x2="17.2" y2="36.9"/>
			<path id="XMLID_459_" class="st3" d="M35.7,27v6.5c0,1.9-1.6,3.5-3.5,3.5l0,0c-1.9,0-3.5-1.6-3.5-3.5V27"/>
			<path id="XMLID_460_" class="st3" d="M40.3,26.7v3.7c0,0.3,0.2,0.6,0.4,0.8l3,1.9"/>
			<path id="XMLID_461_" class="st3" d="M47.5,26.7v3.7c0,0.3-0.2,0.6-0.4,0.8L44,33"/>
			<line id="XMLID_462_" class="st3" x1="43.9" y1="32.7" x2="43.9" y2="37.8"/>
		</g>
		<path id="XMLID_473_" class="st5" d="M40.6,52.3C37.9,53.4,35,54,32,54c-3,0-5.9-0.6-8.6-1.7c-2.6-1.1-5-2.7-7-4.7s-3.6-4.4-4.7-7
			C10.6,37.9,10,35,10,32s0.6-5.9,1.7-8.6c1.1-2.6,2.7-5,4.7-7s4.4-3.6,7-4.7C26.1,10.6,29,10,32,10c3,0,5.9,0.6,8.6,1.7
			c2.6,1.1,5,2.7,7,4.7s3.6,4.4,4.7,7C53.4,26.1,54,29,54,32s-0.6,5.9-1.7,8.6"/>
	</g>
	<g id="XMLID_477_" class="st0">
		<g id="XMLID_474_" class="st2">
			<path id="XMLID_504_" class="st3" d="M54.4,19.3v-2.7c0-0.1-0.1-0.2-0.2-0.2H15.5c-0.1,0-0.2,0.1-0.2,0.2v2.7"/>
		</g>
		<g id="XMLID_469_" class="st2">
			<path id="XMLID_472_" class="st3" d="M25.3,47.6h28.9c0.1,0,0.2-0.1,0.2-0.2V22.2c0-0.1-0.1-0.2-0.2-0.2H15.5
				c-0.1,0-0.2,0.1-0.2,0.2v3.4"/>
			<line id="XMLID_491_" class="st3" x1="49.8" y1="41.8" x2="45.7" y2="41.8"/>
			<line id="XMLID_490_" class="st3" x1="43.7" y1="41.8" x2="39.6" y2="41.8"/>
			<line id="XMLID_489_" class="st3" x1="37.5" y1="41.8" x2="34.9" y2="41.8"/>
			<path id="XMLID_488_" class="st3" d="M40.7,34.2v-5c0-0.1,0.1-0.2,0.2-0.2h7.8c0.1,0,0.2,0.1,0.2,0.2v5c0,0.1-0.1,0.2-0.2,0.2
				h-7.8C40.7,34.4,40.7,34.3,40.7,34.2z"/>
		</g>
		<polyline id="XMLID_498_" class="st4" points="15.5,35.4 18,37.9 22.7,33.2 		"/>
		<path id="XMLID_483_" class="st4" d="M25,43.9l-5.4,3.7c0,0-0.1,0-0.1,0l-5.4-3.7c-2.8-1.9-4.5-5.1-4.5-8.5v-7.8
			c0-0.2,0.1-0.3,0.3-0.3h19.3c0.2,0,0.3,0.1,0.3,0.3v7.8C29.5,38.8,27.8,42,25,43.9z"/>
		<circle id="XMLID_516_" class="st4" cx="19.5" cy="35.6" r="6.2"/>
	</g>
	<g id="XMLID_485_" class="st0">
		<path id="XMLID_480_" class="st4" d="M15.1,47.4l1.6-8.8c-0.9-2.1-1.5-4.4-1.5-6.8c0-9.3,7.5-16.8,16.8-16.8
			c9.3,0,16.8,7.5,16.8,16.8c0,9.3-7.5,16.8-16.8,16.8c-3.3,0-6.3-1-8.9-2.6L15.1,47.4z"/>
		<g id="XMLID_479_" class="st2">
			<path id="XMLID_484_" class="st3" d="M27.5,35.3h-5c-0.3,0-0.5-0.2-0.5-0.5v-1.2c0-0.4,0.2-0.7,0.5-0.9l3.7-2.7
				c0.3-0.3,0.5-0.7,0.5-1.1v-0.6c0-0.6-0.5-1-1-1H23c-0.6,0-1,0.5-1,1l0,0v0.4"/>
			<path id="XMLID_482_" class="st3" d="M32.9,36v-8.7c0,0,0,0,0,0H32c0,0,0,0,0,0l-3.9,4.7c0,0,0,0.1,0,0.1h7"/>
			<g id="XMLID_417_">
				<line id="XMLID_380_" class="st3" x1="38.7" y1="29.1" x2="38.7" y2="36"/>
				<path id="XMLID_379_" class="st3" d="M38.7,32.5H41c0.5,0,1,0.4,1,1V36"/>
			</g>
		</g>
		<path id="XMLID_487_" class="st5" d="M32,10.2c6,0,11.5,2.4,15.4,6.4c3.9,3.9,6.4,9.4,6.4,15.4s-2.4,11.5-6.4,15.4
			c-3.9,3.9-9.4,6.4-15.4,6.4"/>
		<path id="XMLID_486_" class="st4" d="M10.2,32c0-6,2.4-11.5,6.4-15.4c3.9-3.9,9.4-6.4,15.4-6.4"/>
	</g>
	<g id="XMLID_520_" class="st0">
		<g id="XMLID_430_" class="st2">
			<path id="XMLID_434_" class="st3" d="M54.2,53.1H9.8c-0.1,0-0.2-0.1-0.2-0.2l-1-5c0-0.1,0.1-0.3,0.2-0.3h20.1l1,1h4.1l1-1h20.1
				c0.1,0,0.3,0.1,0.2,0.3l-1,5C54.4,53,54.3,53.1,54.2,53.1z"/>
			<path id="XMLID_501_" class="st3" d="M16.3,23.2h-4.9c-0.2,0-0.3,0.1-0.3,0.3v21.7"/>
			<path id="XMLID_500_" class="st3" d="M52.9,45.3V23.5c0-0.2-0.1-0.3-0.3-0.3h-5.2"/>
		</g>
		<path id="XMLID_497_" class="st4" d="M44.7,45.3V17.7l-6.8-6.8H19.5c-0.1,0-0.2,0.1-0.2,0.2v34.2"/>
		<path id="XMLID_496_" class="st4" d="M37.9,10.9v6.6c0,0.1,0.1,0.2,0.2,0.2h6.6"/>
		<rect id="XMLID_433_" x="23.1" y="23.8" class="st4" width="17.6" height="20.3"/>
		<line id="XMLID_503_" class="st4" x1="23.1" y1="29" x2="40.7" y2="29"/>
		<line id="XMLID_502_" class="st4" x1="23.2" y1="32.7" x2="40.8" y2="32.7"/>
		<line id="XMLID_511_" class="st4" x1="23.3" y1="36.4" x2="40.9" y2="36.4"/>
		<line id="XMLID_519_" class="st4" x1="23.3" y1="40.1" x2="40.9" y2="40.1"/>
		<line id="XMLID_505_" class="st4" x1="28" y1="44.1" x2="28" y2="23.2"/>
		<line id="XMLID_508_" class="st4" x1="22.2" y1="19" x2="28" y2="19"/>
	</g>
</g>
<g id="Icon_text" class="st0">
	<g id="XMLID_59_" class="st2">
		<text id="XMLID_198_" transform="matrix(1 0 0 1 -161.4729 -76.6134)" class="st7 st8 st9">STORE</text>
	</g>
	<g id="XMLID_64_" class="st2">
		<text id="XMLID_200_" transform="matrix(1 0 0 1 -86.5 -76.6131)" class="st7 st8 st9">M-COMMERCE</text>
	</g>
	<text id="XMLID_134_" transform="matrix(1 0 0 1 16.0545 -76.6131)" class="st2"><tspan x="0" y="0" class="st7 st8 st9">PAY PER </tspan><tspan x="5.4" y="7" class="st7 st8 st9">CLICK</tspan></text>
	<g id="XMLID_143_" class="st2">
		<text id="XMLID_202_" transform="matrix(1 0 0 1 114.6264 -76.613)"><tspan x="0" y="0" class="st7 st8 st9">NEW</tspan><tspan x="-9.1" y="7" class="st7 st8 st9">PRODUCT</tspan></text>
	</g>
	<g id="XMLID_164_" class="st2">
		<text id="XMLID_204_" transform="matrix(1 0 0 1 196.2103 -76.6131)" class="st7 st8 st9">WISH LIST</text>
	</g>
	<g id="XMLID_181_" class="st2">
		<text id="XMLID_207_" transform="matrix(1 0 0 1 -168.9925 19.6115)" class="st7 st8 st9">DISCOUNT</text>
	</g>
	<g id="XMLID_192_" class="st2">
		<text id="XMLID_206_" transform="matrix(1 0 0 1 -77.9166 19.6115)"><tspan x="0" y="0" class="st7 st8 st9">SHOPPING</tspan><tspan x="11.5" y="7" class="st7 st8 st9">BAG</tspan></text>
	</g>
	<g id="XMLID_238_" class="st2">
		<text id="XMLID_203_" transform="matrix(1 0 0 1 14.49 19.6115)"><tspan x="0" y="0" class="st7 st8 st9">PAYMENT</tspan><tspan x="1.8" y="7" class="st7 st8 st9">METHOD</tspan></text>
	</g>
	<g id="XMLID_279_" class="st2">
		<text id="XMLID_201_" transform="matrix(1 0 0 1 109.1707 19.6115)"><tspan x="0" y="0" class="st7 st8 st9">ONLINE</tspan><tspan x="-5.1" y="7" class="st7 st8 st9">SHOPPING</tspan></text>
	</g>
	<g id="XMLID_304_" class="st2">
		<text id="XMLID_199_" transform="matrix(1 0 0 1 198.4681 19.6117)" class="st7 st8 st9">GIFTBOX</text>
	</g>
	<g id="XMLID_317_" class="st2">
		<text id="XMLID_197_" transform="matrix(1 0 0 1 -168.9166 114.6666)"><tspan x="0" y="0" class="st7 st8 st9">SHOPPING</tspan><tspan x="9.3" y="7" class="st7 st8 st9">CART</tspan></text>
	</g>
	<g id="XMLID_318_" class="st2">
		<text id="XMLID_193_" transform="matrix(1 0 0 1 -72.8086 114.6666)"><tspan x="0" y="0" class="st7 st8 st9">ADD TO</tspan><tspan x="4.1" y="7" class="st7 st8 st9">CART</tspan></text>
	</g>
	<g id="XMLID_357_" class="st2">
		<text id="XMLID_195_" transform="matrix(1 0 0 1 14.479 114.6662)" class="st7 st8 st9">DELIVERY</text>
	</g>
	<g id="XMLID_358_" class="st2">
		<text id="XMLID_196_" transform="matrix(1 0 0 1 101.2117 114.6666)" class="st7 st8 st9">BEST OFFER</text>
	</g>
	<g id="XMLID_366_" class="st2">
		<text id="XMLID_246_" transform="matrix(1 0 0 1 199.9287 114.6663)"><tspan x="0" y="0" class="st7 st8 st9">ONLINE</tspan><tspan x="-5.1" y="7" class="st7 st8 st9">DISCOUNT</tspan></text>
	</g>
	<g id="XMLID_373_" class="st2">
		<text id="XMLID_247_" transform="matrix(1 0 0 1 -171.8733 210.8336)" class="st7 st8 st9">PACKAGING</text>
	</g>
	<g id="XMLID_398_" class="st2">
		<text id="XMLID_248_" transform="matrix(1 0 0 1 -74.236 210.834)"><tspan x="0" y="0" class="st7 st8 st9">SEARCH</tspan><tspan x="-2.9" y="7" class="st7 st8 st9">PRODUCT</tspan></text>
	</g>
	<g id="XMLID_408_" class="st2">
		<text id="XMLID_249_" transform="matrix(1 0 0 1 17.7554 210.8336)" class="st7 st8 st9">REVIEW</text>
	</g>
	<g id="XMLID_413_" class="st2">
		<text id="XMLID_250_" transform="matrix(1 0 0 1 102.2392 210.8336)"><tspan x="0" y="0" class="st7 st8 st9">CUSTOMER</tspan><tspan x="3.5" y="7" class="st7 st8 st9">SUPPORT</tspan></text>
	</g>
	<g id="XMLID_455_" class="st2">
		<text id="XMLID_251_" transform="matrix(1 0 0 1 204.0152 210.834)"><tspan x="0" y="0" class="st7 st8 st9">SHOP</tspan><tspan x="-8.9" y="7" class="st7 st8 st9">LOCATION</tspan></text>
	</g>
	<g id="XMLID_467_" class="st2">
		<text id="XMLID_253_" transform="matrix(1 0 0 1 -78.8855 306.5003)" class="st7 st8 st9">PURCHASE</text>
	</g>
	<g id="XMLID_478_" class="st2">
		<text id="XMLID_264_" transform="matrix(1 0 0 1 -164.5771 306.5011)"><tspan x="0" y="0" class="st7 st8 st9">SECURE</tspan><tspan x="-12" y="7" class="st7 st8 st9">TRANSACTION</tspan></text>
	</g>
	<g id="XMLID_492_" class="st2">
		<text id="XMLID_265_" transform="matrix(1 0 0 1 9.1523 306.5006)"><tspan x="0" y="0" class="st7 st8 st9">CUSTOMERS </tspan><tspan x="7.4" y="7" class="st7 st8 st9">SERVICE</tspan></text>
	</g>
	<g id="XMLID_494_" class="st2">
		<text id="XMLID_266_" transform="matrix(1 0 0 1 94.9306 306.5006)"><tspan x="0" y="0" class="st7 st8 st9">FIND FAVORITE</tspan><tspan x="10.1" y="7" class="st7 st8 st9">PRODUCT</tspan></text>
	</g>
	<g id="XMLID_523_" class="st2">
		<text id="XMLID_267_" transform="matrix(1 0 0 1 199.5991 306.5006)"><tspan x="0" y="0" class="st7 st8 st9">DIGITAL</tspan><tspan x="-1" y="7" class="st7 st8 st9">INVOICE</tspan></text>
	</g>
</g>
<g id="headline" class="st0">
	<circle id="XMLID_61_" class="st10" cx="-133.5" cy="-208.4" r="18.3"/>
	<circle id="XMLID_60_" class="st11" cx="-110.1" cy="-208.4" r="18.3"/>
	<circle id="XMLID_63_" class="st12" cx="-122.7" cy="-190.1" r="18.3"/>
	<g id="XMLID_1_" class="st2">
		<text id="XMLID_268_" transform="matrix(1 0 0 1 -183.7552 -194.0852)"><tspan x="0" y="0" style="fill:#231F20; font-family:'Oswald-Bold'; font-size:22.512px;">FLAT </tspan><tspan x="45.5" y="0" style="fill:#231F20; font-family:'Oswald-Light'; font-size:22.512px;">LINE </tspan><tspan x="83.9" y="0" style="fill:#231F20; font-family:'Oswald-Bold'; font-size:22.512px;">ICONS</tspan></text>
	</g>
	<g id="XMLID_2_" class="st2">
		
			<text id="XMLID_269_" transform="matrix(1 0 0 1 81.6495 -193.9056)" style="fill:#231F20; font-family:'Oswald-Light'; font-size:16.1735px;">SHOPPING &amp; E-COMMERCE</text>
	</g>
</g>
</svg>
